<svg xmlns="http://www.w3.org/2000/svg" width="24" height="24" fill="currentColor"><path d="M2.146 2.264a.75.75 0 0 0-.882.59.75.75 0 0 0 .59.882l1.048.21c.542.108.943.551.998 1.1l.07.704h-.015l.1.84.988 8.238a2.759 2.759 0 0 0 2.73 2.422h8.995a4.256 4.256 0 0 0 4.123-3.219l1.123-4.492c.477-1.907-.993-3.789-2.96-3.789H5.48l-.086-.854a2.753 2.753 0 0 0-2.196-2.421Zm3.5 4.986h13.409c1.026 0 1.753.93 1.504 1.926l-1.123 4.492a2.743 2.743 0 0 1-2.668 2.082H7.773a1.24 1.24 0 0 1-1.24-1.102z"/><path d="M9 12.75a.75.75 0 0 0-.75.75.75.75 0 0 0 .75.75h4a.75.75 0 0 0 .75-.75.75.75 0 0 0-.75-.75Z"/><g><circle cx="8.5" cy="20" r="1.5"/><circle cx="17.5" cy="20" r="1.5"/></g></svg>