<svg xmlns="http://www.w3.org/2000/svg" width="24" height="24" fill="currentColor"><path d="M10.972 2.708a1.2 1.2 0 0 1 2.056 0l2.33 3.873a1.2 1.2 0 0 0 .758.55l4.403 1.02a1.2 1.2 0 0 1 .636 1.956l-2.963 3.413a1.2 1.2 0 0 0-.29.89l.391 4.503a1.2 1.2 0 0 1-1.663 1.208l-4.162-1.763a1.2 1.2 0 0 0-.936 0L7.37 20.121a1.2 1.2 0 0 1-1.663-1.208l.39-4.503a1.2 1.2 0 0 0-.289-.89l-2.962-3.413A1.2 1.2 0 0 1 3.48 8.15l4.403-1.02a1.2 1.2 0 0 0 .757-.55Z"/><path d="M12 1.398c-.65 0-1.3.309-1.67.924L7.998 6.193a.448.448 0 0 1-.283.207L3.313 7.42c-1.4.324-1.975 2.093-1.034 3.178l2.963 3.414c.08.092.118.212.108.334l-.391 4.502c-.124 1.43 1.38 2.525 2.703 1.965l4.162-1.764a.45.45 0 0 1 .352 0l4.162 1.764c1.323.56 2.827-.534 2.703-1.965l-.39-4.502a.448.448 0 0 1 .107-.334l2.963-3.414c.941-1.085.366-2.854-1.034-3.178L16.285 6.4a.448.448 0 0 1-.283-.207l-2.332-3.87c-.37-.616-1.02-.925-1.67-.925Zm-.385 1.698c.192-.32.578-.32.77 0l2.332 3.87c.272.453.716.776 1.23.895l4.403 1.02c.362.084.482.453.238.734l-2.963 3.412a1.951 1.951 0 0 0-.469 1.448l.39 4.502c.033.37-.281.6-.624.455l-4.162-1.764a1.948 1.948 0 0 0-1.52 0l-4.162 1.764c-.343.145-.657-.083-.625-.453l.393-4.504a1.952 1.952 0 0 0-.471-1.448L3.412 9.615c-.244-.28-.124-.65.238-.734l4.403-1.02a1.95 1.95 0 0 0 1.23-.894Z"/></svg>